<?xml version="1.0" standalone="no"?>
<!DOCTYPE svg PUBLIC "-//W3C//DTD SVG 20010904//EN"
 "http://www.w3.org/TR/2001/REC-SVG-20010904/DTD/svg10.dtd">
<svg version="1.0" xmlns="http://www.w3.org/2000/svg"
 width="500.000000pt" height="500.000000pt" viewBox="0 0 500.000000 500.000000"
 preserveAspectRatio="xMidYMid meet">
<metadata>
Created by potrace 1.14, written by Peter Selinger 2001-2017
</metadata>
<g transform="translate(0.000000,500.000000) scale(0.100000,-0.100000)"
fill="#000000" stroke="none">
<path d="M2339 4693 c-16 -40 -18 -107 -4 -126 11 -15 13 -14 23 9 15 31 16
131 2 139 -6 3 -15 -6 -21 -22z"/>
<path d="M2912 4677 c-39 -42 -66 -117 -66 -189 -1 -36 2 -70 7 -74 10 -10
100 87 121 131 10 19 20 56 23 82 4 38 2 49 -13 60 -26 19 -48 16 -72 -10z"/>
<path d="M1800 4545 c0 -55 50 -135 64 -100 9 25 -26 119 -46 123 -14 3 -18
-3 -18 -23z"/>
<path d="M3427 4475 c-48 -50 -94 -141 -103 -203 l-7 -53 37 22 c71 42 170
180 161 227 -2 9 -4 23 -4 30 -2 25 -50 12 -84 -23z"/>
<path d="M3965 4161 c-58 -36 -122 -129 -132 -193 l-4 -29 43 22 c62 31 113
74 140 117 27 44 30 59 17 84 -12 23 -26 23 -64 -1z"/>
<path d="M830 4025 c-36 -43 88 -164 193 -189 32 -8 33 -2 8 50 -27 55 -84
119 -125 138 -43 20 -60 20 -76 1z"/>
<path d="M2280 3863 c-120 -17 -281 -54 -381 -89 -140 -48 -369 -167 -461
-238 -14 -12 -41 -32 -59 -46 -92 -68 -248 -225 -314 -315 -17 -22 -33 -42
-36 -45 -14 -11 -118 -179 -152 -245 -90 -174 -150 -360 -177 -541 -14 -95
-31 -186 -36 -196 -2 -3 -30 3 -62 14 -58 21 -172 29 -239 16 -56 -11 -156
-66 -205 -113 -40 -38 -106 -135 -115 -170 -17 -63 -29 -136 -28 -160 15 -191
102 -333 249 -405 63 -31 153 -50 214 -45 17 2 32 0 33 -3 2 -23 10 -51 24
-96 12 -34 17 -80 16 -136 -3 -146 42 -254 148 -359 93 -93 123 -117 189 -150
96 -49 215 -59 323 -27 27 8 49 11 49 7 0 -4 24 -16 54 -26 43 -15 56 -24 61
-44 23 -95 108 -195 199 -237 136 -62 287 -42 404 54 23 19 45 33 47 30 6 -6
-60 -60 -95 -78 -14 -7 -27 -15 -30 -17 -9 -9 75 -72 133 -101 81 -39 144 -53
233 -53 85 0 137 12 217 52 61 30 147 95 147 111 0 5 -11 24 -24 41 -41 57
-40 63 3 15 45 -50 140 -104 201 -113 19 -3 63 -6 97 -8 65 -2 72 -12 15 -20
-52 -8 -48 -14 21 -27 67 -12 152 -10 176 4 7 5 16 4 20 -1 3 -5 31 -22 62
-36 198 -93 423 -53 577 100 l65 65 51 -17 c68 -23 214 -28 286 -9 177 47 316
187 363 365 16 64 15 184 -3 249 -20 72 -68 159 -115 206 -25 24 -43 44 -42
44 25 0 140 27 201 47 263 86 433 257 395 397 -24 89 -68 147 -169 223 -123
92 -337 173 -458 173 l-37 0 -1 188 c-1 163 -4 203 -28 315 -35 163 -82 302
-152 442 -63 127 -63 127 -126 221 -57 85 -170 217 -247 289 -59 55 -175 153
-202 170 -8 6 -43 28 -77 51 -98 66 -331 176 -432 205 -131 36 -177 47 -285
64 -81 12 -413 18 -485 8z m435 -107 c28 -4 57 -8 65 -11 8 -2 31 -7 50 -10
113 -19 311 -86 423 -142 451 -225 785 -634 906 -1109 25 -99 60 -314 51 -314
-4 0 -15 10 -26 21 -33 37 -97 75 -155 93 -61 19 -170 20 -227 3 -32 -10 -34
-9 -100 59 -104 109 -188 162 -318 205 -104 33 -291 35 -395 4 -87 -26 -141
-52 -220 -106 -56 -37 -158 -142 -186 -190 l-16 -26 -61 19 c-33 11 -94 21
-135 24 -49 2 -82 9 -99 21 -59 42 -80 54 -131 73 -60 23 -155 28 -218 11
l-41 -11 -89 87 c-70 69 -107 97 -173 130 -47 23 -100 45 -119 48 -19 3 -38 8
-43 11 -5 3 -52 7 -106 9 -186 7 -338 -46 -486 -172 -22 -18 -44 -33 -50 -33
-8 0 -7 3 0 8 9 5 30 55 39 92 2 5 4 10 42 115 117 317 369 630 655 818 226
148 508 250 756 273 37 4 68 7 70 9 5 4 289 -4 337 -9z m-400 -3496 c-16 -4
-48 -7 -70 -7 l-40 0 45 7 c25 4 56 7 70 7 22 1 21 0 -5 -7z"/>
<path d="M503 3513 c-7 -2 -13 -15 -13 -28 0 -53 144 -148 243 -161 46 -6 48
-5 38 13 -24 46 -104 122 -159 151 -57 31 -82 36 -109 25z"/>
<path d="M4473 3179 c-45 -22 -52 -33 -29 -42 32 -13 126 23 126 48 0 22 -47
19 -97 -6z"/>
<path d="M311 2982 c-16 -30 -14 -46 12 -70 51 -48 180 -80 247 -62 25 7 24 7
-25 56 -59 58 -113 86 -177 92 -39 3 -48 1 -57 -16z"/>
<path d="M4590 2673 c-45 -14 -46 -14 -25 -26 31 -17 107 -26 135 -15 l25 10
-26 14 c-30 15 -85 24 -109 17z"/>
<path d="M294 2366 c-16 -12 -15 -13 2 -21 45 -18 87 -23 122 -13 l36 10 -24
13 c-37 19 -116 25 -136 11z"/>
<path d="M4428 2153 c-26 -7 -23 -16 26 -61 57 -54 111 -81 174 -89 48 -5 52
-4 63 20 17 37 -6 68 -73 101 -51 25 -148 39 -190 29z"/>
</g>
</svg>
